# xmcd
#
# Track frame offsets: 
#        150
#        12727
#        31820
#        54812
#        74745
#        103030
#        123170
#        141227
#        168840
#        191415
#        202747
#
# Disc length: 2894 seconds
#
# Revision: 2
# Processed by: cddbd v1.5.2PL0 Copyright (c) Steve Scherf et al.
# Submitted via: ExactAudioCopy v1.0b1
#
DISCID=910b4c0b
DTITLE=Big George and the Business - All Fool's Day
DYEAR=1993
DGENRE=
TTITLE0=Victoria
TTITLE1=All Fool's Day
TTITLE2=Towerhill Road
TTITLE3=Told you so
TTITLE4=Take a walk in the wilderness
TTITLE5=Sun don't shine
TTITLE6=This breed of mine
TTITLE7=Ain't nothing left
TTITLE8=Let me love
TTITLE9=Sweet Confusion
TTITLE10=A heart that understands
EXTD=1993\nWorld Wide Records\nSPM WWR CD 0044\n
EXTT0=
EXTT1=
EXTT2=
EXTT3=
EXTT4=
EXTT5=
EXTT6=
EXTT7=
EXTT8=
EXTT9=
EXTT10=
PLAYORDER=
